PathFileType  4	(X/Y/Z) C:\Users\hpl\Documents\MyRepositories\mocap-processing\Data\treadmill\running\
DataRate	CameraRate	NumFrames	NumMarkers	Units	OrigDataRate	OrigDataStartFrame	OrigNumFrames
  200.0		  200.0		    4		     46		 mm	  200.0	      589	    785
Frame#	Time	r_knee			r_shank_antsup			r_ankle			r_calc			r_5meta			r_toe			L_knee			L_shank_antsup			L_ankle			L_calc			L_5meta			L_toe			r_sh2			r_sh3			r_sh4			L_sh2			L_sh3			r_thigh1			r_thigh2			r_thigh3			r_thigh4			r_thigh5			L_thigh1			L_thigh2			L_thigh3			L_thigh4			r.ASIS			r.PSIS			L.ASIS			L.PSIS			C7			R_Shoulder			L_Shoulder			Sternum			R_humerus			R_elbow_med			R_elbow_lat			R_forearm			R_wrist_radius			R_wrist_ulna			L_humerus			L_elbow_med			L_elbow_lat			L_forearm			L_wrist_radius			L_wrist_ulna			
		X1	Y1	Z1	X2	Y2	Z2	X3	Y3	Z3	X4	Y4	Z4	X5	Y5	Z5	X6	Y6	Z6	X7	Y7	Z7	X8	Y8	Z8	X9	Y9	Z9	X10	Y10	Z10	X11	Y11	Z11	X12	Y12	Z12	X13	Y13	Z13	X14	Y14	Z14	X15	Y15	Z15	X16	Y16	Z16	X17	Y17	Z17	X18	Y18	Z18	X19	Y19	Z19	X20	Y20	Z20	X21	Y21	Z21	X22	Y22	Z22	X23	Y23	Z23	X24	Y24	Z24	X25	Y25	Z25	X26	Y26	Z26	X27	Y27	Z27	X28	Y28	Z28	X29	Y29	Z29	X30	Y30	Z30	X31	Y31	Z31	X32	Y32	Z32	X33	Y33	Z33	X34	Y34	Z34	X35	Y35	Z35	X36	Y36	Z36	X37	Y37	Z37	X38	Y38	Z38	X39	Y39	Z39	X40	Y40	Z40	X41	Y41	Z41	X42	Y42	Z42	X43	Y43	Z43	X44	Y44	Z44	X45	Y45	Z45	X46	Y46	Z46	

589	2.94000	1100.319	583.221	-133.812	1025.510	495.538	-141.769	700.447	430.220	-171.843	645.253	495.559	-229.703	660.133	295.818	-151.835	700.014	267.651	-213.619	786.173	462.959	-428.550	749.098	345.972	-420.308	519.457	131.442	-364.154	452.797	119.455	-312.641	637.400	40.910	-393.805	680.596	49.414	-329.277	910.890	462.789	-149.017	1003.479	561.489	-114.632	891.473	539.835	-130.307	679.768	400.671	-441.444	611.116	302.182	-417.160	1040.855	807.908	-124.767	1106.851	715.400	-140.058	1096.776	665.967	-111.909	962.444	741.306	-78.517	1031.452	649.296	-106.106	890.222	680.300	-456.238	866.958	546.623	-421.848	773.274	699.111	-476.394	756.113	566.002	-436.474	909.911	969.110	-149.575	698.144	1032.255	-220.545	894.803	975.039	-421.294	697.386	1026.814	-328.997	827.667	1513.749	-314.332	838.058	1489.530	-111.767	904.963	1467.420	-491.967	979.793	1402.595	-283.715	714.471	1308.232	-35.395	578.857	1235.591	-96.419	583.239	1273.013	-13.916	693.663	1125.231	7.631	755.442	1028.185	6.723	709.704	1011.388	24.637	836.630	1236.326	-587.886	721.248	1131.847	-561.165	758.988	1178.178	-636.681	905.925	1103.105	-590.699	994.327	1099.118	-514.041	980.093	1037.328	-550.997
590	2.94500	1107.056	592.891	-133.763	1036.133	501.427	-141.571	715.116	418.876	-171.959	656.531	479.803	-232.039	683.423	282.180	-151.697	725.194	255.849	-214.029	770.972	466.291	-428.002	731.630	349.788	-420.623	499.870	136.874	-365.096	433.529	127.064	-313.552	615.271	41.238	-393.894	658.811	49.178	-328.751	923.547	462.099	-149.686	1009.933	566.052	-115.199	899.511	537.972	-131.654	663.347	405.726	-441.283	593.051	307.822	-417.340	1042.952	816.447	-124.454	1111.259	725.691	-139.742	1101.942	675.711	-112.191	965.908	747.415	-78.185	1036.986	657.572	-106.151	883.158	679.831	-454.590	854.865	547.084	-420.302	767.336	702.778	-476.216	745.015	569.931	-436.601	910.826	973.820	-149.748	704.290	1033.679	-220.823	896.720	977.300	-421.330	698.676	1028.950	-330.144	827.408	1517.027	-313.098	834.729	1493.106	-112.175	905.563	1471.828	-491.182	979.619	1406.715	-281.828	709.714	1313.583	-36.807	573.794	1242.102	-99.212	577.686	1279.489	-16.889	686.795	1131.346	5.850	748.211	1034.051	5.435	702.096	1017.280	22.858	840.394	1239.617	-586.426	726.283	1134.359	-559.148	763.597	1180.216	-635.017	911.178	1108.063	-587.206	998.989	1106.576	-510.195	986.210	1043.984	-546.307
591	2.95000	1112.960	602.413	-134.359	1045.829	507.057	-141.169	730.510	406.383	-175.389	668.434	463.632	-235.061	706.673	268.689	-152.626	750.030	244.524	-214.277	755.764	470.257	-427.717	714.483	354.219	-421.162	480.941	142.716	-365.853	415.113	135.385	-314.434	592.902	41.630	-393.794	636.029	48.182	-328.663	935.957	461.316	-150.489	1015.751	570.035	-115.796	907.245	535.559	-133.051	646.860	411.350	-440.985	575.437	314.811	-417.346	1044.832	824.632	-123.952	1114.891	735.222	-139.655	1106.461	684.896	-112.417	969.338	754.425	-77.826	1041.877	665.395	-106.309	876.389	679.973	-452.387	843.211	548.388	-418.867	761.856	706.440	-475.519	734.197	575.246	-437.414	912.344	979.653	-149.569	705.404	1036.576	-221.619	898.783	979.772	-421.368	700.021	1030.632	-331.133	827.339	1520.608	-313.631	831.909	1496.846	-112.790	905.975	1476.217	-490.403	979.396	1411.045	-279.920	704.886	1319.289	-37.956	569.149	1248.563	-101.981	572.583	1286.032	-19.616	680.692	1137.913	3.979	741.585	1040.209	4.146	695.194	1023.638	21.063	844.134	1243.108	-584.895	730.745	1137.087	-557.325	767.930	1182.649	-633.580	916.416	1113.477	-583.751	1003.561	1114.480	-506.402	992.160	1051.071	-541.545
592	2.95500	1118.424	611.135	-134.321	1054.998	512.216	-140.598	745.932	394.160	-178.052	681.266	447.030	-238.400	730.242	255.736	-153.574	775.708	233.697	-214.476	741.161	475.063	-427.624	697.478	359.677	-421.965	462.782	149.066	-366.735	397.639	144.148	-315.135	571.873	42.524	-394.160	614.667	48.057	-328.984	948.021	460.186	-151.350	1020.968	573.342	-116.736	914.863	532.668	-134.743	630.862	417.933	-440.729	558.120	321.911	-417.483	1046.931	832.392	-123.803	1118.216	744.343	-139.423	1110.659	693.566	-112.728	972.462	760.682	-78.242	1046.468	673.040	-106.537	869.829	680.582	-449.918	828.556	549.973	-415.683	756.625	710.829	-475.820	723.989	580.463	-438.287	913.279	983.772	-149.686	706.826	1039.971	-222.152	901.003	982.324	-421.345	701.743	1033.570	-332.260	827.290	1524.045	-314.261	829.013	1500.898	-113.152	906.156	1480.804	-489.805	979.174	1415.551	-277.985	700.462	1325.034	-39.232	564.668	1255.335	-104.790	567.612	1292.743	-22.359	674.874	1144.882	2.003	735.367	1046.653	2.685	688.720	1030.458	19.322	847.708	1246.810	-583.314	734.954	1139.949	-555.462	772.167	1185.281	-631.970	921.335	1119.204	-580.329	1007.819	1122.495	-502.599	997.745	1058.468	-536.880
